<?xml version="1.0" encoding="UTF-8" standalone="no"?>
<!-- Created with Inkscape (http://www.inkscape.org/) -->

<svg
   xmlns:dc="http://purl.org/dc/elements/1.1/"
   xmlns:cc="http://creativecommons.org/ns#"
   xmlns:rdf="http://www.w3.org/1999/02/22-rdf-syntax-ns#"
   xmlns:svg="http://www.w3.org/2000/svg"
   xmlns="http://www.w3.org/2000/svg"
   xmlns:sodipodi="http://sodipodi.sourceforge.net/DTD/sodipodi-0.dtd"
   xmlns:inkscape="http://www.inkscape.org/namespaces/inkscape"
   id="svg2"
   version="1.1"
   inkscape:version="0.48.5 r10040"
   width="2475"
   height="1350"
   xml:space="preserve"
   sodipodi:docname="logo_privacy_company_stacked.svg"><metadata
     id="metadata8"><rdf:RDF><cc:Work
         rdf:about=""><dc:format>image/svg+xml</dc:format><dc:type
           rdf:resource="http://purl.org/dc/dcmitype/StillImage" /><dc:title></dc:title></cc:Work></rdf:RDF></metadata><defs
     id="defs6"><clipPath
       clipPathUnits="userSpaceOnUse"
       id="clipPath12330"><path
         d="m 0,1080 1980,0 L 1980,0 0,0 0,1080 z"
         id="path12332"
         inkscape:connector-curvature="0" /></clipPath></defs><sodipodi:namedview
     pagecolor="#ffffff"
     bordercolor="#666666"
     borderopacity="1"
     objecttolerance="10"
     gridtolerance="10"
     guidetolerance="10"
     inkscape:pageopacity="0"
     inkscape:pageshadow="2"
     inkscape:window-width="1600"
     inkscape:window-height="880"
     id="namedview4"
     showgrid="false"
     inkscape:zoom="0.50814815"
     inkscape:cx="1237.5"
     inkscape:cy="675"
     inkscape:window-x="-2"
     inkscape:window-y="-3"
     inkscape:window-maximized="1"
     inkscape:current-layer="g10" /><g
     id="g10"
     inkscape:groupmode="layer"
     inkscape:label="logo_privacy_company"
     transform="matrix(1.25,0,0,-1.25,0,1350)"><g
       id="g7098"
       transform="translate(-115.06288,-36.997108)"><g
         transform="translate(447.84493,34.663065)"
         style="fill:#000000;fill-opacity:1"
         id="g12326"><g
           style="fill:#000000;fill-opacity:1"
           clip-path="url(#clipPath12330)"
           id="g12328"><g
             style="fill:#000000;fill-opacity:1"
             transform="translate(981.7937,604.0001)"
             id="g12334"><path
               inkscape:connector-curvature="0"
               id="path12336"
               style="fill:#000000;fill-opacity:1;fill-rule:nonzero;stroke:none"
               d="m 0,0 0,28 c 0,4.418 -3.582,8 -8,8 l -154,0 c -4.418,0 -8,-3.582 -8,-8 l 0,-184 c 0,-4.418 3.582,-8 8,-8 l 154,0 c 4.418,0 8,3.582 8,8 l 0,28 c 0,4.418 -3.582,8 -8,8 l -110,0 c -1.105,0 -2,0.895 -2,2 l 0,32 c 0,1.105 0.895,2 2,2 l 110,0 c 4.418,0 8,3.582 8,8 l 0,24 c 0,4.418 -3.582,8 -8,8 l -110,0 c -1.105,0 -2,0.895 -2,2 l 0,32 c 0,1.105 0.895,2 2,2 l 110,0 c 4.418,0 8,3.582 8,8" /></g><g
             style="fill:#000000;fill-opacity:1"
             transform="translate(1310.9871,522.8727)"
             id="g12338"><path
               inkscape:connector-curvature="0"
               id="path12340"
               style="fill:#000000;fill-opacity:1;fill-rule:nonzero;stroke:none"
               d="m 0,0 23.007,47.438 c 0.729,1.502 2.87,1.502 3.599,0 L 49.613,0 c 0.645,-1.328 -0.323,-2.873 -1.799,-2.873 l -46.014,0 C 0.323,-2.873 -0.644,-1.328 0,0 m 97.324,-82.873 35.904,0 c 4.429,0 7.331,4.634 5.399,8.619 L 50.18,108.109 c -2.675,5.516 -8.266,9.018 -14.396,9.018 l -21.955,0 c -6.13,0 -11.721,-3.502 -14.396,-9.018 L -89.013,-74.254 c -1.933,-3.985 0.969,-8.619 5.398,-8.619 l 35.905,0 c 4.597,0 8.791,2.627 10.797,6.764 l 16.966,34.982 c 0.669,1.379 2.067,2.254 3.599,2.254 l 82.309,0 c 1.533,0 2.93,-0.875 3.599,-2.254 l 16.966,-34.982 c 2.007,-4.137 6.2,-6.764 10.798,-6.764" /></g><g
             style="fill:#000000;fill-opacity:1"
             transform="translate(739.1074,635.3137)"
             id="g12342"><path
               inkscape:connector-curvature="0"
               id="path12344"
               style="fill:#000000;fill-opacity:1;fill-rule:nonzero;stroke:none"
               d="m 0,0 -89.485,-89.485 c -1.562,-1.562 -4.095,-1.562 -5.657,0 L -184.627,0 c -3.001,3.001 -7.071,4.686 -11.314,4.686 l -23.373,0 c -4.418,0 -8,-3.581 -8,-8 l 0,-184 c 0,-4.418 3.582,-8 8,-8 l 34,0 c 4.419,0 8,3.582 8,8 l 0,104.586 c 0,0.891 1.077,1.337 1.707,0.707 l 71.98,-71.979 c 6.248,-6.248 16.379,-6.248 22.627,0 l 71.979,71.979 c 0.63,0.63 1.707,0.184 1.707,-0.707 l 0,-104.586 c 0,-4.418 3.582,-8 8,-8 l 34,0 c 4.419,0 8,3.582 8,8 l 0,184 c 0,4.419 -3.581,8 -8,8 l -23.372,0 C 7.07,4.686 3.001,3.001 0,0" /></g><g
             style="fill:#000000;fill-opacity:1"
             transform="translate(1203.7476,558)"
             id="g12346"><path
               inkscape:connector-curvature="0"
               id="path12348"
               style="fill:#000000;fill-opacity:1;fill-rule:nonzero;stroke:none"
               d="m 0,0 -78.954,0 c -4.418,0 -8,-3.582 -8,-8 l 0,-20 c 0,-4.418 3.582,-8 8,-8 l 45.373,0 c 1.399,0 2.37,-1.402 1.878,-2.712 -8.601,-22.937 -31.066,-39.097 -57.195,-38.257 -30.56,0.983 -55.584,25.635 -56.992,56.178 -1.56,33.854 25.426,61.791 58.936,61.791 13.73,0 26.364,-4.69 36.388,-12.555 3.206,-2.514 7.766,-2.291 10.647,0.59 l 21.317,21.318 c 3.321,3.32 3.068,8.759 -0.515,11.794 -18.514,15.686 -42.534,25.072 -68.751,24.849 -57.751,-0.491 -104.625,-48.255 -104.081,-106.005 0.541,-57.525 47.342,-103.991 104.995,-103.991 57.99,0 105,47.01 105,105 0,0.061 0,0.123 0,0.184 C 18.028,-7.939 9.877,0 0,0" /></g></g></g><g
         id="g10735"
         transform="matrix(4.0034459,0,0,4.0034459,90.621922,-992.97574)"><rect
           style="fill:#ffffff;fill-opacity:1;stroke:#ffffff;stroke-width:1.60000002;stroke-linecap:round;stroke-linejoin:round;stroke-miterlimit:4;stroke-opacity:1;stroke-dasharray:none;stroke-dashoffset:0"
           id="rect9921"
           width="86.907059"
           height="66.696114"
           x="77.475281"
           y="-425.10349"
           transform="scale(1,-1)" /><path
           inkscape:connector-curvature="0"
           id="path9647"
           style="fill:#d90007;fill-opacity:1;fill-rule:nonzero;stroke:none"
           d="m 155.25338,368.87788 c 0,-1.11801 -0.906,-2.024 -2.024,-2.024 l -8.603,0 c -1.118,0 -2.024,0.90599 -2.024,2.024 l 0,26.46199 c 0,0.22501 -0.272,0.338 -0.432,0.179 l -18.212,-18.212 c -1.581,-1.581 -4.144,-1.581 -5.725,0 l -18.212,18.212 c -0.158998,0.159 -0.431998,0.046 -0.431998,-0.179 l 0,-26.46199 c 0,-1.11801 -0.906,-2.024 -2.024,-2.024 l -8.602,0 c -1.118,0 -2.025,0.90599 -2.025,2.024 l 0,46.55499 c 0,1.11801 0.907,2.024 2.025,2.024 l 5.913,0 c 1.074,0 2.104,-0.42599 2.863,-1.18499 l 22.640998,-22.64201 c 0.395,-0.395 1.036,-0.395 1.431,0 l 22.642,22.64201 c 0.759,0.759 1.789,1.18499 2.862,1.18499 l 5.914,0 c 1.118,0 2.024,-0.90599 2.024,-2.024 l 0,-46.55499 z m -34.157,89.062 c -36.330998,0 -65.784993,-29.453 -65.784993,-65.784 0,-36.332 29.453995,-65.785 65.784993,-65.785 36.331,0 65.784,29.453 65.784,65.785 0,36.331 -29.453,65.784 -65.784,65.784" /></g></g></g></svg>